<?xml version="1.0" encoding="UTF-8"?>
<!DOCTYPE svg PUBLIC "-//W3C//DTD SVG 1.1//EN" "http://www.w3.org/Graphics/SVG/1.1/DTD/svg11.dtd">
<!-- Creator: CorelDRAW -->
<svg xmlns="http://www.w3.org/2000/svg" xml:space="preserve" width="36.1151mm" height="32.9524mm" version="1.1" style="shape-rendering:geometricPrecision; text-rendering:geometricPrecision; image-rendering:optimizeQuality; fill-rule:evenodd; clip-rule:evenodd"
viewBox="0 0 3519.09 3210.91"
 xmlns:xlink="http://www.w3.org/1999/xlink"
 xmlns:xodm="http://www.corel.com/coreldraw/odm/2003">
 <defs>
  <style type="text/css">
   <![CDATA[
    .fil1 {fill:#11A299}
    .fil2 {fill:#1A8776}
    .fil0 {fill:#FDFDFD}
   ]]>
  </style>
 </defs>
 <g id="Camada_x0020_1">
  <metadata id="CorelCorpID_0Corel-Layer"/>
  <g id="_477594320">
   <g>
    <path class="fil0" d="M2769.62 1876.1c-157.93,-199.12 -82.07,250.93 -162.85,408.2 -52.97,103.16 -332.18,379.78 -333.01,411.32 135.91,82.01 395.99,-123.64 470.97,-229.89 104.53,-148.13 145.93,-437.03 24.9,-589.62z"/>
    <path class="fil0" d="M3496.12 121.86c30.62,-49.52 30.62,-72.33 0,-121.85 -31.59,44.67 -30.31,72.84 0,121.85z"/>
   </g>
   <g>
    <path class="fil1" d="M2273.75 2695.61c0.84,-31.54 280.05,-308.16 333.01,-411.32 80.78,-157.27 4.92,-607.32 162.85,-408.2 121.03,152.59 79.64,441.49 -24.9,589.62 -74.98,106.25 -335.06,311.9 -470.97,229.89zm456.16 -1583.12l-220.72 -286.35c91.7,125.44 34.39,157.66 -66.39,21.59 -47.71,-64.43 -154.97,-228.32 -251.23,-192.78 -114.44,42.25 -108.89,86.28 -255.59,104.61 -156.04,19.51 -113.39,-40.01 -243.73,121.02 -138.62,171.24 -92.83,83.93 -127.37,274.49 -24.88,137.3 -159.97,117.55 -225.37,202.21 -156.04,201.99 -214.11,492.85 -415.44,651.33l-11.99 7.92c69.45,92.49 76.17,166.86 0.04,255.3 149.34,1048.01 1626.18,1253.22 2104.83,441.18 0.41,-75.2 -13.53,-105.29 60.49,-131.19 -23.28,-156.33 60.16,-180.48 65.85,-330.49 2.74,-72.07 -21.1,-288.43 13.65,-333.22 107.24,86.34 22.48,423.05 4.96,548.05l0 -622.41 -44.13 43.72 0.94 -41.49c-63.11,-39.58 -62.15,-42.22 -60.56,-119.57l-176.69 -280.56 43.96 -18.92 -27.74 -34.87 -56.96 17.33 35.3 -80.72 -31.38 -23.87 -32.4 39.43c-62.88,-38.41 -222.91,-261.91 -210.64,-335.65 73.83,1.41 73.13,51.62 128.31,103.9z"/>
    <path class="fil1" d="M743.48 127.27c-221.48,242.58 -565.73,743.66 -691.86,1043.78 -168.5,400.99 97.6,1138.54 478.9,1041.57 116.16,-29.54 160.46,-399.54 210.37,-531.81 81.29,-215.36 177.89,-372.69 307.28,-560.77 307.09,-446.37 39.7,-673.93 -304.7,-992.76z"/>
   </g>
   <path class="fil2" d="M2509.19 826.14l-388.76 -500.83 -31.67 -28.75 -14.93 -9.61 -50.09 -19.65c-222.95,212.22 -437.93,546.88 -617.1,798.65 -198.48,278.89 -368.26,621.08 -482.57,942.67 201.33,-158.49 259.4,-449.34 415.44,-651.33 65.4,-84.66 200.49,-64.91 225.37,-202.21 34.54,-190.57 -11.24,-103.25 127.37,-274.49 130.34,-161.03 87.69,-101.51 243.73,-121.02 146.7,-18.33 141.14,-62.36 255.59,-104.61 96.26,-35.55 203.52,128.35 251.23,192.78 100.77,136.07 158.09,103.84 66.39,-21.59zm-1597.07 1445.71c76.13,-88.45 69.41,-162.81 -0.04,-255.3l0.04 255.3zm1932.52 -967.04l-114.73 -192.32c-55.18,-52.28 -54.48,-102.49 -128.31,-103.9 -12.27,73.74 147.76,297.24 210.64,335.65l32.4 -39.43zm53.04 87.26l-21.66 -63.39 -35.3 80.72 56.96 -17.33zm160.48 334.36c-1.59,77.35 -2.55,79.99 60.56,119.57l-0.94 41.49 44.13 -43.72 -43.2 2.23c8.69,-81.25 19.86,-93.64 -60.56,-119.57 4.75,-107 -79.24,-208.08 -132.73,-299.48l-43.96 18.92 176.69 280.56zm19.29 855.41c-74.03,25.9 -60.08,55.99 -60.49,131.19 69.27,-40.94 61.66,-53.37 60.49,-131.19l34.42 15.01 50.05 -130.67c17.52,-125 102.28,-461.7 -4.96,-548.05 -34.75,44.79 -10.91,261.15 -13.65,333.22 -5.69,150.01 -89.13,174.16 -65.85,330.49z"/>
  </g>
 </g>
</svg>
