<?xml version="1.0" standalone="no"?>
<svg xmlns:xlink="http://www.w3.org/1999/xlink" id="wave" style="transform:rotate(180deg); transition: 0.3s" viewBox="0 0 1440 120" version="1.1" xmlns="http://www.w3.org/2000/svg"><defs><linearGradient id="sw-gradient-0" x1="0" x2="0" y1="1" y2="0"><stop stop-color="rgba(236, 250, 239, 1)" offset="0%"/><stop stop-color="rgba(236, 250, 239, 1)" offset="100%"/></linearGradient></defs><path style="transform:translate(0, 0px); opacity:1" fill="url(#sw-gradient-0)" d="M0,12L26.7,14C53.3,16,107,20,160,28C213.3,36,267,48,320,52C373.3,56,427,52,480,50C533.3,48,587,48,640,48C693.3,48,747,48,800,54C853.3,60,907,72,960,66C1013.3,60,1067,36,1120,34C1173.3,32,1227,52,1280,66C1333.3,80,1387,88,1440,82C1493.3,76,1547,56,1600,46C1653.3,36,1707,36,1760,40C1813.3,44,1867,52,1920,56C1973.3,60,2027,60,2080,62C2133.3,64,2187,68,2240,60C2293.3,52,2347,32,2400,30C2453.3,28,2507,44,2560,60C2613.3,76,2667,92,2720,82C2773.3,72,2827,36,2880,22C2933.3,8,2987,16,3040,26C3093.3,36,3147,48,3200,44C3253.3,40,3307,20,3360,26C3413.3,32,3467,64,3520,64C3573.3,64,3627,32,3680,24C3733.3,16,3787,32,3813,40L3840,48L3840,120L3813.3,120C3786.7,120,3733,120,3680,120C3626.7,120,3573,120,3520,120C3466.7,120,3413,120,3360,120C3306.7,120,3253,120,3200,120C3146.7,120,3093,120,3040,120C2986.7,120,2933,120,2880,120C2826.7,120,2773,120,2720,120C2666.7,120,2613,120,2560,120C2506.7,120,2453,120,2400,120C2346.7,120,2293,120,2240,120C2186.7,120,2133,120,2080,120C2026.7,120,1973,120,1920,120C1866.7,120,1813,120,1760,120C1706.7,120,1653,120,1600,120C1546.7,120,1493,120,1440,120C1386.7,120,1333,120,1280,120C1226.7,120,1173,120,1120,120C1066.7,120,1013,120,960,120C906.7,120,853,120,800,120C746.7,120,693,120,640,120C586.7,120,533,120,480,120C426.7,120,373,120,320,120C266.7,120,213,120,160,120C106.7,120,53,120,27,120L0,120Z"/></svg>